<?xml version="1.0" encoding="utf-8"?>
<!-- Generator: Adobe Illustrator 21.0.2, SVG Export Plug-In . SVG Version: 6.00 Build 0)  -->
<svg version="1.1" id="Layer_1" xmlns="http://www.w3.org/2000/svg" xmlns:xlink="http://www.w3.org/1999/xlink" x="0px" y="0px"
	 viewBox="0 0 19 26" style="enable-background:new 0 0 19 26;" xml:space="preserve">
<style type="text/css">
	.st0{fill-rule:evenodd;clip-rule:evenodd;fill:#459CD5;}
</style>
<path d="M15.7,2.6c-2.1,1.6-4,4.2-4.5,5.3c11.1-3.9,10,13.3-0.4,11c-0.3,3.4-0.8,4.6-2.1,7c0.3-2.3,1.2-4.5-0.5-7.2
	c-1-1.5-4.9-0.9-6.2-2.5c-3.7-4.2,0.3-11.1,6-8.1C7.3,6.3,6.8,2.2,8,0c0.9-0.1,1.2,0.4,1.8,0.6c0.3,0.3-0.2,0.6-0.1,1
	c0.4-0.5,0.6-1.1,0.9-1.6c0.7,0.2,1.3,0.6,1.7,1.2c-0.3,0.8-0.8,1.5-1,2.3c1-0.5,2-2.1,3.4-2.6C15.4,1.2,15.4,2.1,15.7,2.6"/>
</svg>
