<svg xmlns="http://www.w3.org/2000/svg" width="37" height="50.5" viewBox="0 0 37 50.5">
  <path fill="#489fdf" d="M145.365,19.558a36.066,36.066,0,0,0-9.09,10.347c22.25-7.5,19.895,25.744-.778,21.454A29.14,29.14,0,0,1,131.341,65c0.58-4.513,2.5-8.783-1.038-13.889-2.019-2.912-9.825-1.844-12.467-4.8-7.339-8.2.569-21.565,11.948-15.647-1.22-3.866-2.13-11.971.258-16.153,1.771-.123,2.4.862,3.637,1.262,0.54,0.556-.412,1.084-0.262,2.019,0.713-.907,1.167-2.064,1.819-3.028a6.5,6.5,0,0,1,3.378,2.273c-0.653,1.554-1.5,2.911-2.079,4.542,1.963-.953,3.925-4.094,6.753-5.048,1.425,0.3,1.447,1.959,2.077,3.029" transform="translate(-115 -14.5)"/>
</svg>
